<svg xmlns="http://www.w3.org/2000/svg">

	<symbol id="facebook" viewBox="0 0 41.0346 79.0265">
		<title>Facebook</title>
		<path d="M41.0315.5684V13.1067H33.5754c-5.8421,0-6.9333,2.8026-6.9333,6.8391v8.976H40.5574L38.7062,42.98H26.6421V79.0265H12.11V42.98H0V28.9218H12.11V18.5689C12.11,6.5534,19.4717,0,30.2045,0a93.6127,93.6127,0,0,1,10.83.5684Z"/>
	</symbol>

	<symbol id="messenger" viewBox="0 0 32 32">
		<title>Facebook Messenger</title>
		<path d="M16 0c-8.836 0-16 6.632-16 14.815 0 4.664 2.325 8.819 5.959 11.539v5.647l5.451-2.989c1.456 0.4 2.995 0.619 4.591 0.619 8.836 0 16-6.633 16-14.813s-7.164-14.816-16-14.816zM17.588 19.951l-4.073-4.347-7.951 4.347 8.745-9.284 4.175 4.345 7.852-4.345-8.748 9.284z"></path>
	</symbol>

	<!-- #e4405f -->
	<symbol id="instagram" viewBox="0 0 32 32">
		<title>Instagram</title>
		<path d="M16 0c-4.347 0-4.889 0.020-6.596 0.096-1.704 0.080-2.864 0.348-3.884 0.744-1.052 0.408-1.945 0.956-2.835 1.845s-1.439 1.781-1.845 2.835c-0.396 1.020-0.665 2.18-0.744 3.884-0.080 1.707-0.096 2.249-0.096 6.596s0.020 4.889 0.096 6.596c0.080 1.703 0.348 2.864 0.744 3.884 0.408 1.051 0.956 1.945 1.845 2.835 0.889 0.888 1.781 1.439 2.835 1.845 1.021 0.395 2.181 0.665 3.884 0.744 1.707 0.080 2.249 0.096 6.596 0.096s4.889-0.020 6.596-0.096c1.703-0.080 2.864-0.349 3.884-0.744 1.051-0.408 1.945-0.957 2.835-1.845 0.888-0.889 1.439-1.78 1.845-2.835 0.395-1.020 0.665-2.181 0.744-3.884 0.080-1.707 0.096-2.249 0.096-6.596s-0.020-4.889-0.096-6.596c-0.080-1.703-0.349-2.865-0.744-3.884-0.408-1.052-0.957-1.945-1.845-2.835-0.889-0.889-1.78-1.439-2.835-1.845-1.020-0.396-2.181-0.665-3.884-0.744-1.707-0.080-2.249-0.096-6.596-0.096zM16 2.88c4.271 0 4.78 0.021 6.467 0.095 1.56 0.073 2.407 0.332 2.969 0.553 0.749 0.289 1.28 0.636 1.843 1.195 0.559 0.56 0.905 1.092 1.195 1.841 0.219 0.563 0.48 1.409 0.551 2.969 0.076 1.688 0.093 2.195 0.093 6.467s-0.020 4.78-0.099 6.467c-0.081 1.56-0.341 2.407-0.561 2.969-0.299 0.749-0.639 1.28-1.199 1.843-0.559 0.559-1.099 0.905-1.84 1.195-0.56 0.219-1.42 0.48-2.98 0.551-1.699 0.076-2.199 0.093-6.479 0.093-4.281 0-4.781-0.020-6.479-0.099-1.561-0.081-2.421-0.341-2.981-0.561-0.759-0.299-1.28-0.639-1.839-1.199-0.561-0.559-0.92-1.099-1.2-1.84-0.22-0.56-0.479-1.42-0.56-2.98-0.060-1.68-0.081-2.199-0.081-6.459 0-4.261 0.021-4.781 0.081-6.481 0.081-1.56 0.34-2.419 0.56-2.979 0.28-0.76 0.639-1.28 1.2-1.841 0.559-0.559 1.080-0.919 1.839-1.197 0.56-0.221 1.401-0.481 2.961-0.561 1.7-0.060 2.2-0.080 6.479-0.080l0.060 0.040zM16 7.784c-4.54 0-8.216 3.68-8.216 8.216 0 4.54 3.68 8.216 8.216 8.216 4.54 0 8.216-3.68 8.216-8.216 0-4.54-3.68-8.216-8.216-8.216zM16 21.333c-2.947 0-5.333-2.387-5.333-5.333s2.387-5.333 5.333-5.333 5.333 2.387 5.333 5.333-2.387 5.333-5.333 5.333zM26.461 7.46c0 1.060-0.861 1.92-1.92 1.92-1.060 0-1.92-0.861-1.92-1.92s0.861-1.919 1.92-1.919c1.057-0.001 1.92 0.86 1.92 1.919z"></path>
	</symbol>

	<symbol id="line" viewBox="0 0 82.9797 79.0265">
		<title>LINE</title>
		<path d="M66.9543,32.1235a2.18,2.18,0,0,1,0,4.3591H60.8864v3.89h6.0679a2.177,2.177,0,1,1,0,4.3539H58.7056a2.1819,2.1819,0,0,1-2.1679-2.1756V26.0556a2.1846,2.1846,0,0,1,2.1782-2.1782h8.2487a2.1783,2.1783,0,0,1-.01,4.3565H60.8864v3.89ZM53.6257,42.5505A2.1779,2.1779,0,0,1,52.132,44.612a2.2235,2.2235,0,0,1-.6872.1063,2.1418,2.1418,0,0,1-1.7633-.8635L41.2357,32.3854V42.5505a2.173,2.173,0,1,1-4.346,0V26.0556a2.1662,2.1662,0,0,1,1.4858-2.0563,1.9877,1.9877,0,0,1,.6717-.1141,2.2366,2.2366,0,0,1,1.7114.8791l8.5132,11.5134v-10.22a2.1782,2.1782,0,1,1,4.3564,0V42.553Zm-19.85,0a2.1743,2.1743,0,1,1-4.3486,0V26.0556a2.1743,2.1743,0,1,1,4.3486,0Zm-8.5261,2.1756H17.0005a2.1908,2.1908,0,0,1-2.1782-2.1756V26.0556a2.1782,2.1782,0,0,1,4.3564,0V40.3722h6.07a2.177,2.177,0,0,1,0,4.3539ZM82.98,33.682C82.98,15.1127,64.3612,0,41.49,0S0,15.1127,0,33.682c0,16.6348,14.7626,30.57,34.6959,33.22,1.351.2827,3.1921.892,3.6589,2.0408a8.4694,8.4694,0,0,1,.1322,3.7341l-.5679,3.5266c-.1555,1.04-.83,4.1,3.6278,2.23C46.01,76.57,65.458,64.3352,74.1709,54.318,80.1325,47.786,82.98,41.0957,82.98,33.6846Z"/>
	</symbol>
	
	<symbol id="twitter" viewBox="0 0 97.2328 79.0265">
		<title>Twitter</title>
		<path d="M97.0444,9.4131a40.4463,40.4463,0,0,1-11.4458,3.1387A20.0924,20.0924,0,0,0,94.3615,1.5192,41.1676,41.1676,0,0,1,81.6942,6.3169a19.9255,19.9255,0,0,0-34.48,13.603,20.4777,20.4777,0,0,0,.5134,4.5546A56.4427,56.4427,0,0,1,6.645,3.7069,19.5451,19.5451,0,0,0,3.9469,13.7337,19.9339,19.9339,0,0,0,12.81,30.3266,19.9152,19.9152,0,0,1,3.7828,27.832v.2461A19.9434,19.9434,0,0,0,19.768,47.6335a20.25,20.25,0,0,1-5.25.6927,19.9908,19.9908,0,0,1-3.71-.3494A19.9974,19.9974,0,0,0,29.4606,61.82,39.9746,39.9746,0,0,1,4.74,70.3488a42.7614,42.7614,0,0,1-4.74-.27,56.6888,56.6888,0,0,0,30.6152,8.9482c36.68,0,56.7123-30.3691,56.7123-56.6606,0-.8477,0-1.7015-.0608-2.5523A40.2963,40.2963,0,0,0,97.2328,9.4921L97.0414,9.41Z"/>
	</symbol>

	<symbol id="youtube" viewBox="0 0 32 32">
		<title>YouTube</title>
		<path d="M31.327 8.273c-0.386-1.353-1.431-2.398-2.756-2.777l-0.028-0.007c-2.493-0.668-12.528-0.668-12.528-0.668s-10.009-0.013-12.528 0.668c-1.353 0.386-2.398 1.431-2.777 2.756l-0.007 0.028c-0.443 2.281-0.696 4.903-0.696 7.585 0 0.054 0 0.109 0 0.163l-0-0.008c-0 0.037-0 0.082-0 0.126 0 2.682 0.253 5.304 0.737 7.845l-0.041-0.26c0.386 1.353 1.431 2.398 2.756 2.777l0.028 0.007c2.491 0.669 12.528 0.669 12.528 0.669s10.008 0 12.528-0.669c1.353-0.386 2.398-1.431 2.777-2.756l0.007-0.028c0.425-2.233 0.668-4.803 0.668-7.429 0-0.099-0-0.198-0.001-0.297l0 0.015c0.001-0.092 0.001-0.201 0.001-0.31 0-2.626-0.243-5.196-0.708-7.687l0.040 0.258zM12.812 20.801v-9.591l8.352 4.803z"></path>
	</symbol>

	<symbol id="clock" viewBox="0 0 512 512">
		<title>Clock</title>
		<path d="M256 8C119 8 8 119 8 256s111 248 248 248 248-111 248-248S393 8 256 8zm216 248c0 118.7-96.1 216-216 216-118.7 0-216-96.1-216-216 0-118.7 96.1-216 216-216 118.7 0 216 96.1 216 216zm-148.9 88.3l-81.2-59c-3.1-2.3-4.9-5.9-4.9-9.7V116c0-6.6 5.4-12 12-12h14c6.6 0 12 5.4 12 12v146.3l70.5 51.3c5.4 3.9 6.5 11.4 2.6 16.8l-8.2 11.3c-3.9 5.3-11.4 6.5-16.8 2.6z"></path>
	</symbol>

	<symbol id="calendar" viewBox="0 0 448 512">
		<title>Calendar</title>
		<path fill="currentColor" d="M400 64h-48V12c0-6.6-5.4-12-12-12h-40c-6.6 0-12 5.4-12 12v52H160V12c0-6.6-5.4-12-12-12h-40c-6.6 0-12 5.4-12 12v52H48C21.5 64 0 85.5 0 112v352c0 26.5 21.5 48 48 48h352c26.5 0 48-21.5 48-48V112c0-26.5-21.5-48-48-48zm-6 400H54c-3.3 0-6-2.7-6-6V160h352v298c0 3.3-2.7 6-6 6z"></path>
	</symbol>
	
</svg>